<svg width="49" height="48" viewBox="0 0 49 48" fill="none" xmlns="http://www.w3.org/2000/svg">
<path d="M40.6665 8H8.6665C6.4605 8 4.6665 9.794 4.6665 12V36C4.6665 38.206 6.4605 40 8.6665 40H40.6665C42.8725 40 44.6665 38.206 44.6665 36V12C44.6665 9.794 42.8725 8 40.6665 8ZM40.6665 12V13.022L24.6665 25.468L8.6665 13.024V12H40.6665ZM8.6665 36V18.088L23.4385 29.578C23.7887 29.8531 24.2212 30.0026 24.6665 30.0026C25.1118 30.0026 25.5443 29.8531 25.8945 29.578L40.6665 18.088L40.6705 36H8.6665Z" fill="white"/>
</svg>
