<svg width="49" height="48" viewBox="0 0 49 48" fill="none" xmlns="http://www.w3.org/2000/svg">
<path d="M24.3331 28C28.7451 28 32.3331 24.412 32.3331 20C32.3331 15.588 28.7451 12 24.3331 12C19.9211 12 16.3331 15.588 16.3331 20C16.3331 24.412 19.9211 28 24.3331 28ZM24.3331 16C26.5391 16 28.3331 17.794 28.3331 20C28.3331 22.206 26.5391 24 24.3331 24C22.1271 24 20.3331 22.206 20.3331 20C20.3331 17.794 22.1271 16 24.3331 16ZM23.1732 43.628C23.5117 43.8697 23.9172 43.9997 24.3332 43.9997C24.7491 43.9997 25.1547 43.8697 25.4932 43.628C26.1012 43.198 40.3912 32.88 40.3332 20C40.3332 11.178 33.1552 4 24.3332 4C15.5112 4 8.33318 11.178 8.33318 19.99C8.27518 32.88 22.5652 43.198 23.1732 43.628ZM24.3332 8C30.9512 8 36.3332 13.382 36.3332 20.01C36.3752 28.886 27.5572 36.856 24.3332 39.47C21.1112 36.854 12.2912 28.882 12.3332 20C12.3332 13.382 17.7152 8 24.3332 8Z" fill="white"/>
<path d="M24.3331 28C28.7451 28 32.3331 24.412 32.3331 20C32.3331 15.588 28.7451 12 24.3331 12C19.9211 12 16.3331 15.588 16.3331 20C16.3331 24.412 19.9211 28 24.3331 28ZM24.3331 16C26.5391 16 28.3331 17.794 28.3331 20C28.3331 22.206 26.5391 24 24.3331 24C22.1271 24 20.3331 22.206 20.3331 20C20.3331 17.794 22.1271 16 24.3331 16ZM23.1732 43.628C23.5117 43.8697 23.9172 43.9997 24.3332 43.9997C24.7491 43.9997 25.1547 43.8697 25.4932 43.628C26.1012 43.198 40.3912 32.88 40.3332 20C40.3332 11.178 33.1552 4 24.3332 4C15.5112 4 8.33318 11.178 8.33318 19.99C8.27518 32.88 22.5652 43.198 23.1732 43.628ZM24.3332 8C30.9512 8 36.3332 13.382 36.3332 20.01C36.3752 28.886 27.5572 36.856 24.3332 39.47C21.1112 36.854 12.2912 28.882 12.3332 20C12.3332 13.382 17.7152 8 24.3332 8Z" fill="white"/>
</svg>
