<svg width="12" height="14" viewBox="0 0 12 14" fill="none" xmlns="http://www.w3.org/2000/svg">
<path fill-rule="evenodd" clip-rule="evenodd" d="M11.82 3.74671L11.7267 3.58004C11.6063 3.3785 11.4365 3.21099 11.2333 3.09337L6.76 0.513374C6.55746 0.395874 6.32753 0.333787 6.09333 0.333374H5.9C5.6658 0.333787 5.43586 0.395874 5.23333 0.513374L0.76 3.10004C0.55798 3.21688 0.390173 3.38469 0.273333 3.58671L0.18 3.75337C0.0625 3.95593 0.000413333 4.18587 0 4.42004V9.58671C0.000413333 9.82091 0.0625 10.0508 0.18 10.2534L0.273333 10.42C0.393193 10.6197 0.560326 10.7868 0.76 10.9067L5.24 13.4867C5.44153 13.6066 5.67213 13.6689 5.90666 13.6667H6.09333C6.32753 13.6663 6.55746 13.6042 6.76 13.4867L11.2333 10.9C11.4373 10.7858 11.6058 10.6174 11.72 10.4134L11.82 10.2467C11.9361 10.0436 11.9981 9.81404 12 9.58004V4.41337C11.9996 4.1792 11.9375 3.94927 11.82 3.74671ZM5.9 1.66671H6.09333L10 3.92004L6 6.22671L2 3.92004L5.9 1.66671ZM6.66666 12L10.5667 9.74671L10.6667 9.58004V5.07337L6.66666 7.38671V12Z" fill="white"/>
</svg>
